<svg xmlns="http://www.w3.org/2000/svg" viewBox="0 0 32 32" fill="none">
  <!-- Hexagonal shield background -->
  <path d="M16 2L28 8.5V18C28 23.5 22.5 28.5 16 30C9.5 28.5 4 23.5 4 18V8.5L16 2Z" fill="#2563EB"/>
  <path d="M16 2L28 8.5V18C28 23.5 22.5 28.5 16 30C9.5 28.5 4 23.5 4 18V8.5L16 2Z" fill="url(#favicon-grad)" opacity="0.6"/>
  <!-- Scan lines -->
  <line x1="10" y1="12" x2="22" y2="12" stroke="white" stroke-width="1.5" stroke-linecap="round" opacity="0.4"/>
  <line x1="10" y1="16" x2="22" y2="16" stroke="white" stroke-width="1.5" stroke-linecap="round" opacity="0.6"/>
  <line x1="10" y1="20" x2="22" y2="20" stroke="white" stroke-width="1.5" stroke-linecap="round" opacity="0.4"/>
  <!-- Checkmark -->
  <path d="M11 16L14.5 19.5L21 12.5" stroke="white" stroke-width="2" stroke-linecap="round" stroke-linejoin="round"/>
  <defs>
    <linearGradient id="favicon-grad" x1="4" y1="2" x2="28" y2="30" gradientUnits="userSpaceOnUse">
      <stop offset="0%" stop-color="#60a5fa"/>
      <stop offset="100%" stop-color="#1d4ed8"/>
    </linearGradient>
  </defs>
</svg>
